<svg width="157" height="30" viewBox="0 0 207 45" fill="none" xmlns="http://www.w3.org/2000/svg">
<path d="M61.3739 35V13.1408H53.492V10.4785H72.1984V13.1408H64.3165V35H61.3739ZM80.4055 35.4904C78.6773 35.4904 77.1593 35.1284 75.8515 34.4045C74.5437 33.6572 73.5278 32.6179 72.8038 31.2867C72.0798 29.9556 71.7178 28.4142 71.7178 26.6627V26.2423C71.7178 24.4674 72.0798 22.9144 72.8038 21.5832C73.5278 20.252 74.532 19.2245 75.8164 18.5005C77.1009 17.7532 78.5722 17.3795 80.2303 17.3795C81.8417 17.3795 83.2663 17.7298 84.5041 18.4304C85.7418 19.1077 86.711 20.0886 87.4116 21.373C88.1122 22.6575 88.4625 24.1638 88.4625 25.892V27.1531H74.4853C74.5553 28.9981 75.1509 30.446 76.2718 31.4969C77.3928 32.5245 78.7941 33.0383 80.4755 33.0383C81.9468 33.0383 83.0795 32.6996 83.8735 32.0224C84.6675 31.3451 85.2747 30.5394 85.6951 29.6053L88.0772 30.7613C87.7269 31.4852 87.2365 32.2092 86.6059 32.9332C85.9987 33.6572 85.193 34.2644 84.1888 34.7548C83.2079 35.2452 81.9468 35.4904 80.4055 35.4904ZM74.5203 24.8761H85.6601C85.5667 23.288 85.0179 22.0503 84.0136 21.1628C83.0328 20.2754 81.7717 19.8317 80.2303 19.8317C78.6656 19.8317 77.3811 20.2754 76.3769 21.1628C75.3727 22.0503 74.7538 23.288 74.5203 24.8761ZM98.8768 35C97.8959 35 97.1369 34.7314 96.5998 34.1943C96.086 33.6572 95.8291 32.9215 95.8291 31.9874V20.2871H90.6796V17.87H95.8291V11.7746H98.5966V17.87H104.201V20.2871H98.5966V31.567C98.5966 32.2676 98.9352 32.6179 99.6125 32.6179H103.431V35H98.8768ZM108.684 35V17.87H111.381V19.9718H111.872C112.175 19.2245 112.643 18.6757 113.273 18.3254C113.904 17.975 114.733 17.7999 115.76 17.7999H117.792V20.3221H115.585C114.347 20.3221 113.343 20.6724 112.572 21.373C111.825 22.0503 111.451 23.1129 111.451 24.5608V35H108.684ZM129.19 35.4904C127.462 35.4904 125.932 35.1284 124.601 34.4045C123.293 33.6805 122.266 32.6646 121.518 31.3568C120.794 30.0256 120.433 28.4609 120.433 26.6627V26.2073C120.433 24.4324 120.794 22.8794 121.518 21.5482C122.266 20.217 123.293 19.1894 124.601 18.4655C125.932 17.7415 127.462 17.3795 129.19 17.3795C130.918 17.3795 132.436 17.7415 133.744 18.4655C135.075 19.1894 136.103 20.217 136.827 21.5482C137.574 22.8794 137.948 24.4324 137.948 26.2073V26.6627C137.948 28.4609 137.574 30.0256 136.827 31.3568C136.103 32.6646 135.075 33.6805 133.744 34.4045C132.436 35.1284 130.918 35.4904 129.19 35.4904ZM129.19 33.0032C131.012 33.0032 132.46 32.4311 133.534 31.2867C134.632 30.119 135.18 28.5543 135.18 26.5926V26.2773C135.18 24.3156 134.632 22.7626 133.534 21.6182C132.46 20.4506 131.012 19.8667 129.19 19.8667C127.392 19.8667 125.944 20.4506 124.846 21.6182C123.749 22.7626 123.2 24.3156 123.2 26.2773V26.5926C123.2 28.5543 123.749 30.119 124.846 31.2867C125.944 32.4311 127.392 33.0032 129.19 33.0032ZM148.515 35C147.534 35 146.775 34.7314 146.238 34.1943C145.724 33.6572 145.467 32.9215 145.467 31.9874V20.2871H140.318V17.87H145.467V11.7746H148.235V17.87H153.84V20.2871H148.235V31.567C148.235 32.2676 148.574 32.6179 149.251 32.6179H153.069V35H148.515ZM165.624 35.4904C163.895 35.4904 162.366 35.1284 161.035 34.4045C159.727 33.6805 158.699 32.6646 157.952 31.3568C157.228 30.0256 156.866 28.4609 156.866 26.6627V26.2073C156.866 24.4324 157.228 22.8794 157.952 21.5482C158.699 20.217 159.727 19.1894 161.035 18.4655C162.366 17.7415 163.895 17.3795 165.624 17.3795C167.352 17.3795 168.87 17.7415 170.178 18.4655C171.509 19.1894 172.536 20.217 173.26 21.5482C174.008 22.8794 174.381 24.4324 174.381 26.2073V26.6627C174.381 28.4609 174.008 30.0256 173.26 31.3568C172.536 32.6646 171.509 33.6805 170.178 34.4045C168.87 35.1284 167.352 35.4904 165.624 35.4904ZM165.624 33.0032C167.445 33.0032 168.893 32.4311 169.967 31.2867C171.065 30.119 171.614 28.5543 171.614 26.5926V26.2773C171.614 24.3156 171.065 22.7626 169.967 21.6182C168.893 20.4506 167.445 19.8667 165.624 19.8667C163.825 19.8667 162.377 20.4506 161.28 21.6182C160.182 22.7626 159.633 24.3156 159.633 26.2773V26.5926C159.633 28.5543 160.182 30.119 161.28 31.2867C162.377 32.4311 163.825 33.0032 165.624 33.0032ZM179.361 35V17.87H182.059V20.0068H182.549C182.876 19.3996 183.413 18.8391 184.161 18.3254C184.908 17.8116 185.959 17.5547 187.313 17.5547C188.645 17.5547 189.719 17.8466 190.536 18.4304C191.377 19.0143 191.984 19.7266 192.358 20.5673H192.848C193.245 19.7266 193.841 19.0143 194.635 18.4304C195.452 17.8466 196.585 17.5547 198.033 17.5547C199.177 17.5547 200.181 17.7882 201.045 18.2553C201.91 18.7224 202.587 19.3996 203.077 20.2871C203.591 21.1512 203.848 22.1904 203.848 23.4048V35H201.08V23.65C201.08 22.5057 200.742 21.6066 200.065 20.9527C199.411 20.2754 198.488 19.9368 197.297 19.9368C196.036 19.9368 194.997 20.3455 194.179 21.1628C193.385 21.9802 192.988 23.1596 192.988 24.701V35H190.221V23.65C190.221 22.5057 189.882 21.6066 189.205 20.9527C188.551 20.2754 187.629 19.9368 186.438 19.9368C185.176 19.9368 184.137 20.3455 183.32 21.1628C182.526 21.9802 182.129 23.1596 182.129 24.701V35H179.361Z" fill="black"/>
<path d="M22.2923 0L23.9517 11.235C24.6699 16.0969 28.4877 19.9148 33.3496 20.6329L44.5846 22.2923L33.3496 23.9517C28.4877 24.6699 24.6699 28.4877 23.9517 33.3496L22.2923 44.5846L20.6329 33.3496C19.9148 28.4877 16.0969 24.6699 11.235 23.9517L0 22.2923L11.235 20.6329C16.0969 19.9148 19.9148 16.0969 20.6329 11.235L22.2923 0Z" fill="black"/>
</svg>
