<svg width="157" height="30" viewBox="0 0 207 45" fill="none" xmlns="http://www.w3.org/2000/svg">
<path d="M61.3739 35V13.1408H53.492V10.4785H72.1984V13.1408H64.3165V35H61.3739ZM80.4055 35.4904C78.6773 35.4904 77.1593 35.1284 75.8515 34.4045C74.5436 33.6572 73.5277 32.6179 72.8038 31.2867C72.0798 29.9556 71.7178 28.4142 71.7178 26.6627V26.2423C71.7178 24.4674 72.0798 22.9144 72.8038 21.5832C73.5277 20.252 74.532 19.2245 75.8164 18.5005C77.1009 17.7532 78.5722 17.3795 80.2303 17.3795C81.8417 17.3795 83.2663 17.7298 84.5041 18.4304C85.7418 19.1077 86.711 20.0886 87.4116 21.373C88.1122 22.6575 88.4625 24.1638 88.4625 25.892V27.1531H74.4853C74.5553 28.9981 75.1508 30.446 76.2718 31.4969C77.3928 32.5245 78.794 33.0383 80.4755 33.0383C81.9468 33.0383 83.0795 32.6996 83.8735 32.0224C84.6675 31.3451 85.2747 30.5394 85.6951 29.6053L88.0772 30.7613C87.7269 31.4852 87.2365 32.2092 86.6059 32.9332C85.9987 33.6572 85.193 34.2644 84.1888 34.7548C83.2079 35.2452 81.9468 35.4904 80.4055 35.4904ZM74.5203 24.8761H85.6601C85.5667 23.288 85.0178 22.0503 84.0136 21.1628C83.0328 20.2754 81.7717 19.8317 80.2303 19.8317C78.6656 19.8317 77.3811 20.2754 76.3769 21.1628C75.3727 22.0503 74.7538 23.288 74.5203 24.8761ZM98.911 35C97.9301 35 97.1711 34.7314 96.634 34.1943C96.1202 33.6572 95.8633 32.9215 95.8633 31.9874V20.2871H90.7138V17.87H95.8633V11.7746H98.6308V17.87H104.236V20.2871H98.6308V31.567C98.6308 32.2676 98.9694 32.6179 99.6467 32.6179H103.465V35H98.911ZM108.718 35V17.87H111.416V19.9718H111.906C112.21 19.2245 112.677 18.6757 113.307 18.3254C113.938 17.975 114.767 17.7999 115.794 17.7999H117.826V20.3221H115.619C114.382 20.3221 113.377 20.6724 112.607 21.373C111.859 22.0503 111.486 23.1129 111.486 24.5608V35H108.718ZM129.224 35.4904C127.496 35.4904 125.967 35.1284 124.635 34.4045C123.328 33.6805 122.3 32.6646 121.553 31.3568C120.829 30.0256 120.467 28.4609 120.467 26.6627V26.2073C120.467 24.4324 120.829 22.8794 121.553 21.5482C122.3 20.217 123.328 19.1894 124.635 18.4655C125.967 17.7415 127.496 17.3795 129.224 17.3795C130.953 17.3795 132.471 17.7415 133.778 18.4655C135.11 19.1894 136.137 20.217 136.861 21.5482C137.608 22.8794 137.982 24.4324 137.982 26.2073V26.6627C137.982 28.4609 137.608 30.0256 136.861 31.3568C136.137 32.6646 135.11 33.6805 133.778 34.4045C132.471 35.1284 130.953 35.4904 129.224 35.4904ZM129.224 33.0032C131.046 33.0032 132.494 32.4311 133.568 31.2867C134.666 30.119 135.215 28.5543 135.215 26.5926V26.2773C135.215 24.3156 134.666 22.7626 133.568 21.6182C132.494 20.4506 131.046 19.8667 129.224 19.8667C127.426 19.8667 125.978 20.4506 124.881 21.6182C123.783 22.7626 123.234 24.3156 123.234 26.2773V26.5926C123.234 28.5543 123.783 30.119 124.881 31.2867C125.978 32.4311 127.426 33.0032 129.224 33.0032ZM148.584 35C147.603 35 146.844 34.7314 146.307 34.1943C145.793 33.6572 145.536 32.9215 145.536 31.9874V20.2871H140.386V17.87H145.536V11.7746H148.303V17.87H153.908V20.2871H148.303V31.567C148.303 32.2676 148.642 32.6179 149.319 32.6179H153.138V35H148.584ZM165.692 35.4904C163.964 35.4904 162.434 35.1284 161.103 34.4045C159.795 33.6805 158.768 32.6646 158.02 31.3568C157.296 30.0256 156.934 28.4609 156.934 26.6627V26.2073C156.934 24.4324 157.296 22.8794 158.02 21.5482C158.768 20.217 159.795 19.1894 161.103 18.4655C162.434 17.7415 163.964 17.3795 165.692 17.3795C167.42 17.3795 168.938 17.7415 170.246 18.4655C171.577 19.1894 172.605 20.217 173.329 21.5482C174.076 22.8794 174.45 24.4324 174.45 26.2073V26.6627C174.45 28.4609 174.076 30.0256 173.329 31.3568C172.605 32.6646 171.577 33.6805 170.246 34.4045C168.938 35.1284 167.42 35.4904 165.692 35.4904ZM165.692 33.0032C167.514 33.0032 168.962 32.4311 170.036 31.2867C171.133 30.119 171.682 28.5543 171.682 26.5926V26.2773C171.682 24.3156 171.133 22.7626 170.036 21.6182C168.962 20.4506 167.514 19.8667 165.692 19.8667C163.894 19.8667 162.446 20.4506 161.348 21.6182C160.251 22.7626 159.702 24.3156 159.702 26.2773V26.5926C159.702 28.5543 160.251 30.119 161.348 31.2867C162.446 32.4311 163.894 33.0032 165.692 33.0032ZM179.43 35V17.87H182.127V20.0068H182.618C182.945 19.3996 183.482 18.8391 184.229 18.3254C184.976 17.8116 186.027 17.5547 187.382 17.5547C188.713 17.5547 189.787 17.8466 190.605 18.4304C191.445 19.0143 192.053 19.7266 192.426 20.5673H192.917C193.314 19.7266 193.909 19.0143 194.703 18.4304C195.521 17.8466 196.653 17.5547 198.101 17.5547C199.246 17.5547 200.25 17.7882 201.114 18.2553C201.978 18.7224 202.655 19.3996 203.146 20.2871C203.659 21.1512 203.916 22.1904 203.916 23.4048V35H201.149V23.65C201.149 22.5057 200.81 21.6066 200.133 20.9527C199.479 20.2754 198.557 19.9368 197.366 19.9368C196.104 19.9368 195.065 20.3455 194.248 21.1628C193.454 21.9802 193.057 23.1596 193.057 24.701V35H190.289V23.65C190.289 22.5057 189.951 21.6066 189.273 20.9527C188.62 20.2754 187.697 19.9368 186.506 19.9368C185.245 19.9368 184.206 20.3455 183.388 21.1628C182.594 21.9802 182.197 23.1596 182.197 24.701V35H179.43Z" fill="white"/>
<path d="M22.2923 0L24.4016 14.2809C24.8526 17.3343 27.2503 19.732 30.3037 20.183L44.5846 22.2923L30.3037 24.4016C27.2503 24.8526 24.8526 27.2503 24.4016 30.3037L22.2923 44.5846L20.183 30.3037C19.732 27.2503 17.3343 24.8526 14.2809 24.4016L0 22.2923L14.2809 20.183C17.3343 19.732 19.732 17.3343 20.183 14.2809L22.2923 0Z" fill="white"/>
</svg>
